<svg xmlns="http://www.w3.org/2000/svg" viewBox="0 0 1000 420" width="1000" height="420" role="img" aria-label="The signal bridge merge: one payload keyed on external_id fans out to three outcomes - an absent field leaves the column (hollow cube), null or empty string clears it (emptied cube), a value is parsed and clamped (solid live cube)">
  <title>The signal bridge merge - absent leaves the column, null clears it, a value is parsed and clamped</title>

  <defs>
    <linearGradient id="sky" x1="0" y1="0" x2="1" y2="1">
      <stop offset="0%" stop-color="#0e1613"/>
      <stop offset="55%" stop-color="#0a0c0b"/>
      <stop offset="100%" stop-color="#12100a"/>
    </linearGradient>
    <linearGradient id="brand" x1="0" y1="0" x2="1" y2="0">
      <stop offset="0%" stop-color="#2fbf71"/>
      <stop offset="100%" stop-color="#c9a13a"/>
    </linearGradient>
    <linearGradient id="slabTop" x1="0" y1="0" x2="1" y2="1">
      <stop offset="0%" stop-color="#5fe6a0"/>
      <stop offset="100%" stop-color="#2fbf71"/>
    </linearGradient>
    <pattern id="iso" width="60" height="34" patternUnits="userSpaceOnUse">
      <path d="M0 17 L30 0 L60 17 L30 34 Z" fill="none" stroke="#2fbf71" stroke-width=".5" opacity=".12"/>
    </pattern>
    <pattern id="scan" width="4" height="4" patternUnits="userSpaceOnUse">
      <rect width="4" height="2" fill="#f2f4f2" opacity=".025"/>
    </pattern>

    <!-- Three states, three DIFFERENT cubes. Same 42:24 isometric rhombus and
         48-deep body as the slabs in console.svg, so the motif stays one motif;
         only fill and stroke carry the meaning. Gold is reserved for money. -->
    <g id="cubeGhost">
      <path d="M0 -24 L42 0 L0 24 L-42 0 Z" fill="none" stroke="#8b948f" stroke-opacity=".5" stroke-width="1.5" stroke-dasharray="5 4"/>
      <path d="M-42 0 L0 24 L0 72 L-42 48 Z" fill="none" stroke="#8b948f" stroke-opacity=".5" stroke-width="1.5" stroke-dasharray="5 4"/>
      <path d="M42 0 L0 24 L0 72 L42 48 Z" fill="none" stroke="#8b948f" stroke-opacity=".5" stroke-width="1.5" stroke-dasharray="5 4"/>
    </g>
    <g id="cubeCleared">
      <path d="M0 -24 L42 0 L0 24 L-42 0 Z" fill="#161a18" stroke="#8b948f" stroke-opacity=".75" stroke-width="1.5"/>
      <path d="M-42 0 L0 24 L0 72 L-42 48 Z" fill="#141817" stroke="#8b948f" stroke-opacity=".55" stroke-width="1.5"/>
      <path d="M42 0 L0 24 L0 72 L42 48 Z" fill="#101413" stroke="#8b948f" stroke-opacity=".55" stroke-width="1.5"/>
    </g>
    <g id="cubeLive">
      <path d="M0 -24 L42 0 L0 24 L-42 0 Z" fill="url(#slabTop)"/>
      <path d="M-42 0 L0 24 L0 72 L-42 48 Z" fill="#1c7a47"/>
      <path d="M42 0 L0 24 L0 72 L42 48 Z" fill="#13603a"/>
    </g>
  </defs>

  <style>
    text { font-family: system-ui, 'Segoe UI', Roboto, sans-serif; }
    /* .mono must also win on descendants: the bare `text` type selector above
       beats plain inheritance, so a group carrying .mono alone silently
       rendered its text children in the sans stack. */
    .mono, .mono text { font-family: ui-monospace, SFMono-Regular, Menlo, Consolas, monospace; }

    .rise { animation: rise 3.6s ease-in-out infinite alternate; }
    .d1 { animation-delay: 0s; }
    .d2 { animation-delay: .45s; }
    .d3 { animation-delay: .9s; }
    .flow { animation: flow 4s ease-in-out infinite; }
    .drift { animation: drift 12s linear infinite; }

    @keyframes rise { from { transform: translateY(4px); } to { transform: translateY(-4px); } }
    /* Clamped to the 560 units the spine actually spans, so the dot never fades
       out in empty space past the last column. */
    @keyframes flow { 0% { transform: translateX(0); opacity: 0; }
                      12% { opacity: 1; }
                      88% { opacity: 1; }
                      100% { transform: translateX(560px); opacity: 0; } }
    @keyframes drift { from { transform: translateX(0); } to { transform: translateX(60px); } }

    @media (prefers-reduced-motion: reduce) {
      .rise, .flow, .drift { animation: none; }
      /* The dot goes, but the static arrowheads keep the direction readable. */
      .flow { opacity: 0; }
    }
  </style>

  <rect width="1000" height="420" fill="url(#sky)"/>
  <g class="drift"><rect x="-60" y="0" width="1120" height="420" fill="url(#iso)"/></g>

  <text class="mono" x="500" y="36" font-size="19" letter-spacing="1.2" fill="#8b948f" text-anchor="middle">ONE MERGE KEYED ON external_id &#183; OPEN, TICK AND CLOSE ARE THE SAME CALL</text>

  <!-- The payload -->
  <rect x="300" y="56" width="400" height="152" rx="10" fill="#141817" stroke="#2fbf71" stroke-opacity=".3"/>
  <g class="mono" font-size="19" text-anchor="start" fill="#8b948f">
    <text x="322" y="100">{ <tspan fill="#f2f4f2">"external_id"</tspan>: "auto-8842",</text>
    <text x="322" y="132">&#160;&#160;<tspan fill="#f2f4f2">"status"</tspan>: "running",</text>
    <text x="322" y="164">&#160;&#160;<tspan fill="#f2f4f2">"last_price"</tspan>: 4597.1 }</text>
  </g>
  <path d="M322 176 L678 176" stroke="#8b948f" stroke-opacity=".25" stroke-width="1"/>
  <text x="322" y="196" font-size="19" fill="#8b948f" text-anchor="start">no symbol &#8212; the card already exists</text>

  <!-- One payload, three per-field outcomes. Rail is drawn BEFORE the cubes and
       terminates on them; arrowheads are static so direction survives
       prefers-reduced-motion, where the travelling dot is hidden. -->
  <g stroke="#2fbf71" stroke-opacity=".35" stroke-width="1.5" fill="none">
    <path d="M500 208 L500 224"/>
    <path d="M220 224 L780 224" stroke-dasharray="5 6"/>
    <path d="M220 224 L220 234"/>
    <path d="M500 224 L500 234"/>
    <path d="M780 224 L780 234"/>
  </g>
  <g fill="#2fbf71" opacity=".8">
    <path d="M214 233 L226 233 L220 241 Z"/>
    <path d="M494 233 L506 233 L500 241 Z"/>
    <path d="M774 233 L786 233 L780 241 Z"/>
  </g>
  <g transform="translate(220 224)">
    <g class="flow"><circle cx="0" cy="0" r="4" fill="#5fe6a0"/></g>
  </g>

  <g transform="translate(220 272)"><g class="rise d1"><use href="#cubeGhost"/></g></g>
  <g transform="translate(500 272)"><g class="rise d2"><use href="#cubeCleared"/></g></g>
  <g transform="translate(780 272)"><g class="rise d3"><use href="#cubeLive"/></g></g>

  <g class="mono" text-anchor="middle">
    <text x="220" y="374" font-size="22" fill="#f2f4f2">undefined</text>
    <text x="220" y="400" font-size="19" fill="#8b948f">leave the column</text>
    <text x="500" y="374" font-size="22" fill="#f2f4f2">null &#183; ""</text>
    <text x="500" y="400" font-size="19" fill="#8b948f">clear it</text>
    <text x="780" y="374" font-size="22" fill="#f2f4f2">value</text>
    <text x="780" y="400" font-size="19" fill="#8b948f">parse and clamp</text>
  </g>

  <g stroke="#2fbf71" stroke-width="1.5" opacity=".45" fill="none">
    <path d="M12 12 l30 0 M12 12 l0 30"/>
    <path d="M988 12 l-30 0 M988 12 l0 30"/>
    <path d="M12 408 l30 0 M12 408 l0 -30"/>
    <path d="M988 408 l-30 0 M988 408 l0 -30"/>
  </g>

  <rect width="1000" height="420" fill="url(#scan)"/>
  <rect x="0" y="415" width="1000" height="5" fill="url(#brand)"/>
</svg>
